<svg xmlns="http://www.w3.org/2000/svg" xmlns:xlink="http://www.w3.org/1999/xlink" viewBox="0 0 3710 3710"><defs><style>.cls-1{fill:none;}.cls-2{fill:#fff;}.cls-3{fill:url(#linear-gradient);}.cls-4{fill:#91b3fa;}.cls-5{fill:#bdd0fb;}.cls-6{opacity:0.3;}.cls-7{fill:url(#linear-gradient-2);}.cls-8{fill:url(#linear-gradient-3);}.cls-9{fill:url(#linear-gradient-4);}.cls-10{fill:url(#linear-gradient-5);}.cls-11{fill:url(#linear-gradient-6);}.cls-12{fill:url(#linear-gradient-7);}.cls-13{fill:url(#linear-gradient-8);}.cls-14{fill:url(#linear-gradient-9);}.cls-15{fill:url(#linear-gradient-10);}.cls-16{fill:url(#linear-gradient-11);}.cls-17{clip-path:url(#clip-path);}.cls-18{fill:url(#linear-gradient-12);}.cls-19{fill:url(#linear-gradient-13);}.cls-20{fill:url(#linear-gradient-14);}.cls-21{fill:url(#linear-gradient-15);}.cls-22{fill:url(#linear-gradient-16);}.cls-23{fill:url(#linear-gradient-17);}.cls-24{fill:url(#linear-gradient-18);}.cls-25{fill:url(#linear-gradient-19);}.cls-26{fill:url(#linear-gradient-20);}.cls-27{fill:url(#linear-gradient-21);}.cls-28{fill:url(#linear-gradient-22);}.cls-29{fill:url(#linear-gradient-23);}.cls-30{fill:url(#linear-gradient-24);}.cls-31{fill:url(#linear-gradient-25);}.cls-32{fill:url(#linear-gradient-26);}.cls-33{fill:url(#linear-gradient-27);}.cls-34{fill:url(#linear-gradient-28);}.cls-35{fill:url(#linear-gradient-29);}.cls-36{fill:url(#linear-gradient-30);}.cls-37{fill:url(#linear-gradient-31);}.cls-38{fill:url(#linear-gradient-32);}.cls-39{fill:url(#linear-gradient-33);}.cls-40{fill:url(#linear-gradient-34);}.cls-41{fill:url(#linear-gradient-35);}.cls-42{fill:url(#linear-gradient-36);}.cls-43{fill:url(#linear-gradient-37);}.cls-44{fill:url(#linear-gradient-38);}.cls-45{fill:url(#linear-gradient-39);}.cls-46{fill:url(#linear-gradient-40);}.cls-47{fill:url(#linear-gradient-41);}.cls-48{fill:url(#linear-gradient-42);}.cls-49{fill:url(#linear-gradient-43);}.cls-50{fill:url(#linear-gradient-44);}.cls-51{fill:url(#linear-gradient-45);}.cls-52{fill:url(#linear-gradient-46);}.cls-53{fill:url(#linear-gradient-47);}.cls-54{fill:url(#linear-gradient-48);}.cls-55{fill:url(#linear-gradient-49);}.cls-56{fill:url(#linear-gradient-50);}.cls-57{fill:url(#linear-gradient-51);}.cls-58{fill:#7d97f4;}.cls-59{fill:url(#linear-gradient-52);}.cls-60{fill:url(#linear-gradient-53);}.cls-61{fill:url(#linear-gradient-54);}.cls-62{fill:url(#linear-gradient-55);}.cls-63{fill:url(#linear-gradient-56);}.cls-64{fill:url(#linear-gradient-57);}.cls-65{fill:url(#linear-gradient-58);}.cls-66{fill:url(#linear-gradient-59);}.cls-67{fill:url(#linear-gradient-60);}.cls-68{fill:url(#linear-gradient-61);}.cls-69{fill:url(#linear-gradient-62);}.cls-70{fill:url(#linear-gradient-63);}.cls-71{fill:url(#linear-gradient-64);}.cls-72{fill:url(#linear-gradient-65);}.cls-73{fill:url(#linear-gradient-66);}.cls-74{fill:url(#linear-gradient-67);}.cls-75{fill:url(#linear-gradient-68);}.cls-76{fill:url(#linear-gradient-69);}.cls-77{fill:url(#linear-gradient-70);}.cls-78{fill:url(#linear-gradient-71);}</style><linearGradient id="linear-gradient" x1="3558.31" y1="4025.49" x2="1117.75" y2="994.47" gradientUnits="userSpaceOnUse"><stop offset="0" stop-color="#dae3fe"/><stop offset="1" stop-color="#e9effd"/></linearGradient><linearGradient id="linear-gradient-2" x1="1332.64" y1="2861.7" x2="1456.75" y2="2861.7" xlink:href="#linear-gradient"/><linearGradient id="linear-gradient-3" x1="1242.68" y1="2860.54" x2="1547.96" y2="2860.54" xlink:href="#linear-gradient"/><linearGradient id="linear-gradient-4" x1="1885.64" y1="2560.25" x2="1981.25" y2="2560.25" xlink:href="#linear-gradient"/><linearGradient id="linear-gradient-5" x1="1816.34" y1="2559.36" x2="2051.51" y2="2559.36" xlink:href="#linear-gradient"/><linearGradient id="linear-gradient-6" x1="1077.52" y1="2269.11" x2="1479.36" y2="2269.11" gradientTransform="translate(1475.9 -327.86) rotate(33.75)" gradientUnits="userSpaceOnUse"><stop offset="0" stop-color="#4f52ff"/><stop offset="1" stop-color="#4042e2"/></linearGradient><linearGradient id="linear-gradient-7" x1="2251.46" y1="2282.12" x2="2632.82" y2="2282.12" gradientTransform="translate(2407.71 -1060.17) rotate(46.35)" xlink:href="#linear-gradient-6"/><linearGradient id="linear-gradient-8" x1="2172.19" y1="1256.42" x2="2655.64" y2="1256.42" gradientTransform="translate(1355.59 -1250.67) rotate(39.62)" xlink:href="#linear-gradient-6"/><linearGradient id="linear-gradient-9" x1="1220.57" y1="1329.13" x2="1676.56" y2="1329.13" gradientTransform="translate(1566.7 -633.26) rotate(50.91)" xlink:href="#linear-gradient-6"/><linearGradient id="linear-gradient-10" x1="2674.17" y1="382.65" x2="743.81" y2="3825.57" gradientTransform="matrix(1, 0, 0, 1, 0, 0)" xlink:href="#linear-gradient-6"/><linearGradient id="linear-gradient-11" x1="1287.38" y1="1835.32" x2="2433.32" y2="1835.32" xlink:href="#linear-gradient"/><clipPath id="clip-path"><circle class="cls-1" cx="1862.61" cy="1857.97" r="562.11"/></clipPath><linearGradient id="linear-gradient-12" x1="1857.87" y1="1991.84" x2="1885.97" y2="1751.42" gradientUnits="userSpaceOnUse"><stop offset="0" stop-color="#febbba"/><stop offset="1" stop-color="#ff928e"/></linearGradient><linearGradient id="linear-gradient-13" x1="2117.94" y1="1606.77" x2="1672.44" y2="2249.7" gradientUnits="userSpaceOnUse"><stop offset="0" stop-color="#09005d"/><stop offset="1" stop-color="#1a0f91"/></linearGradient><linearGradient id="linear-gradient-14" x1="1884.06" y1="1722.73" x2="1873.31" y2="1412.97" xlink:href="#linear-gradient-12"/><linearGradient id="linear-gradient-15" x1="2029.24" y1="1717.69" x2="2018.49" y2="1407.94" xlink:href="#linear-gradient-12"/><linearGradient id="linear-gradient-16" x1="1739.65" y1="1727.74" x2="1728.9" y2="1417.99" xlink:href="#linear-gradient-12"/><linearGradient id="linear-gradient-17" x1="1645.25" y1="1159.29" x2="2032.6" y2="1923.53" xlink:href="#linear-gradient-13"/><linearGradient id="linear-gradient-18" x1="1716.85" y1="1123" x2="2104.21" y2="1887.24" xlink:href="#linear-gradient-13"/><linearGradient id="linear-gradient-19" x1="2622.09" y1="1956.1" x2="2176.59" y2="2599.03" xlink:href="#linear-gradient-13"/><linearGradient id="linear-gradient-20" x1="4012" y1="-545.91" x2="3444.97" y2="102.12" gradientUnits="userSpaceOnUse"><stop offset="0" stop-color="#ff928e"/><stop offset="1" stop-color="#fe7062"/></linearGradient><linearGradient id="linear-gradient-21" x1="4173.04" y1="-405" x2="3606.02" y2="243.03" xlink:href="#linear-gradient-20"/><linearGradient id="linear-gradient-22" x1="2145.83" y1="1626.09" x2="1700.33" y2="2269.03" xlink:href="#linear-gradient-13"/><linearGradient id="linear-gradient-23" x1="2400.94" y1="1802.86" x2="1955.44" y2="2445.8" xlink:href="#linear-gradient-13"/><linearGradient id="linear-gradient-24" x1="1403.2" y1="1724.42" x2="188.56" y2="3890.79" gradientTransform="matrix(1, 0, 0, 1, 0, 0)" xlink:href="#linear-gradient-6"/><linearGradient id="linear-gradient-25" x1="-6324.87" y1="2905.29" x2="-6162.61" y2="2905.29" gradientTransform="translate(6979.5)" xlink:href="#linear-gradient-12"/><linearGradient id="linear-gradient-26" x1="7435.62" y1="-13651.14" x2="6868.59" y2="-13003.11" gradientTransform="translate(7747.26)" xlink:href="#linear-gradient-20"/><linearGradient id="linear-gradient-27" x1="-6076.54" y1="2313.65" x2="-6165.28" y2="2697.14" gradientTransform="translate(6979.5)" xlink:href="#linear-gradient-12"/><linearGradient id="linear-gradient-28" x1="-5771.79" y1="-4788.17" x2="-5929.22" y2="-4579.89" gradientTransform="translate(8330.49 1318.79) rotate(-46.73)" xlink:href="#linear-gradient-12"/><linearGradient id="linear-gradient-29" x1="853.09" y1="2198.31" x2="984.92" y2="2662.16" xlink:href="#linear-gradient-13"/><linearGradient id="linear-gradient-30" x1="-6002.37" y1="-4623.23" x2="-5876.09" y2="-4752.78" gradientTransform="translate(8330.49 1318.79) rotate(-46.73)" xlink:href="#linear-gradient-12"/><linearGradient id="linear-gradient-31" x1="3699.6" y1="-819.26" x2="3132.57" y2="-171.23" xlink:href="#linear-gradient-20"/><linearGradient id="linear-gradient-32" x1="7506.58" y1="-13589.06" x2="6939.55" y2="-12941.03" gradientTransform="translate(7747.26)" xlink:href="#linear-gradient-20"/><linearGradient id="linear-gradient-33" x1="-6147.36" y1="2304.28" x2="-6690.4" y2="2999.06" gradientTransform="translate(7747.26)" xlink:href="#linear-gradient-12"/><linearGradient id="linear-gradient-34" x1="-6074.69" y1="2361.09" x2="-6617.73" y2="3055.86" gradientTransform="translate(7747.26)" xlink:href="#linear-gradient-12"/><linearGradient id="linear-gradient-35" x1="1674.9" y1="1851.73" x2="384.34" y2="4153.52" gradientTransform="matrix(-1, 0, 0, 1, 3953.46, 0)" xlink:href="#linear-gradient-6"/><linearGradient id="linear-gradient-36" x1="5722.02" y1="2385.58" x2="5290.29" y2="2916.33" gradientTransform="matrix(-0.99, -0.12, -0.12, 0.99, 8264.53, 715.42)" xlink:href="#linear-gradient-12"/><linearGradient id="linear-gradient-37" x1="2857.33" y1="2252.74" x2="2979.74" y2="3001.94" xlink:href="#linear-gradient-13"/><linearGradient id="linear-gradient-38" x1="5060.57" y1="371.58" x2="4493.54" y2="1019.62" xlink:href="#linear-gradient-20"/><linearGradient id="linear-gradient-39" x1="-5370.33" y1="3617.13" x2="-5347.26" y2="3453.37" gradientTransform="translate(8902.93 797.67) rotate(16.22)" xlink:href="#linear-gradient-12"/><linearGradient id="linear-gradient-40" x1="-5476.07" y1="3266.24" x2="-5260.41" y2="3514.19" gradientTransform="translate(8902.93 797.67) rotate(16.22)" xlink:href="#linear-gradient-12"/><linearGradient id="linear-gradient-41" x1="2792.81" y1="2263.29" x2="2915.22" y2="3012.48" xlink:href="#linear-gradient-13"/><linearGradient id="linear-gradient-42" x1="-5422.19" y1="3219.37" x2="-5206.53" y2="3467.32" gradientTransform="translate(8902.93 797.67) rotate(16.22)" xlink:href="#linear-gradient-12"/><linearGradient id="linear-gradient-43" x1="4841.02" y1="3152.38" x2="5694.56" y2="2176.07" gradientTransform="matrix(-0.99, -0.12, -0.12, 0.99, 8264.53, 715.42)" xlink:href="#linear-gradient-12"/><linearGradient id="linear-gradient-44" x1="1701.48" y1="34.25" x2="481.34" y2="2210.45" gradientTransform="matrix(-1, 0, 0, 1, 3953.46, 0)" xlink:href="#linear-gradient-6"/><linearGradient id="linear-gradient-45" x1="4105.62" y1="-463.99" x2="3538.6" y2="184.04" xlink:href="#linear-gradient-20"/><linearGradient id="linear-gradient-46" x1="-1106.81" y1="1003.98" x2="-949.86" y2="712.51" gradientTransform="matrix(-1, 0, 0, 1, 1641.52, 0)" xlink:href="#linear-gradient-12"/><linearGradient id="linear-gradient-47" x1="-1108.45" y1="1003.09" x2="-951.51" y2="711.62" gradientTransform="matrix(-1, 0, 0, 1, 1641.52, 0)" xlink:href="#linear-gradient-12"/><linearGradient id="linear-gradient-48" x1="-608" y1="780.95" x2="-949.82" y2="1056.99" gradientTransform="matrix(-1, 0, 0, 1, 1641.52, 0)" xlink:href="#linear-gradient-12"/><linearGradient id="linear-gradient-49" x1="-520.8" y1="888.92" x2="-862.62" y2="1164.96" gradientTransform="matrix(-1, 0, 0, 1, 1641.52, 0)" xlink:href="#linear-gradient-12"/><linearGradient id="linear-gradient-50" x1="-1386.65" y1="1058.99" x2="-1098.05" y2="1058.99" gradientTransform="matrix(-1, 0, 0, 1, 1641.52, 0)" xlink:href="#linear-gradient-12"/><linearGradient id="linear-gradient-51" x1="3478.57" y1="469.68" x2="3124.2" y2="717.74" xlink:href="#linear-gradient-13"/><linearGradient id="linear-gradient-52" x1="-1111.38" y1="1117.03" x2="-1012.69" y2="1117.03" gradientTransform="matrix(-1, 0, 0, 1, 1641.52, 0)" xlink:href="#linear-gradient-12"/><linearGradient id="linear-gradient-53" x1="2737.64" y1="-1263.93" x2="2922.1" y2="-1138.64" gradientTransform="matrix(0.72, -0.69, 0.69, 0.72, 1423.14, 3572.77)" xlink:href="#linear-gradient-12"/><linearGradient id="linear-gradient-54" x1="-990.19" y1="652.57" x2="-1157.6" y2="371.55" gradientTransform="matrix(-1, 0, 0, 1, 1641.52, 0)" xlink:href="#linear-gradient-13"/><linearGradient id="linear-gradient-55" x1="2748.7" y1="-1280.2" x2="2933.15" y2="-1154.91" gradientTransform="matrix(0.72, -0.69, 0.69, 0.72, 1423.14, 3572.77)" xlink:href="#linear-gradient-12"/><linearGradient id="linear-gradient-56" x1="-1141.84" y1="742.91" x2="-1309.25" y2="461.89" gradientTransform="matrix(-1, 0, 0, 1, 1641.52, 0)" xlink:href="#linear-gradient-13"/><linearGradient id="linear-gradient-57" x1="1506.95" y1="124.45" x2="335.08" y2="2214.54" gradientTransform="matrix(1, 0, 0, 1, 0, 0)" xlink:href="#linear-gradient-6"/><linearGradient id="linear-gradient-58" x1="16747.9" y1="-22570.64" x2="16180.87" y2="-21922.61" gradientTransform="matrix(-1, 0, 0, 1, -3041.91, 0)" xlink:href="#linear-gradient-20"/><linearGradient id="linear-gradient-59" x1="936.85" y1="959.2" x2="1057.17" y2="782.26" xlink:href="#linear-gradient-12"/><linearGradient id="linear-gradient-60" x1="991.56" y1="787.42" x2="1092.68" y2="742.93" xlink:href="#linear-gradient-12"/><linearGradient id="linear-gradient-61" x1="786.19" y1="855.62" x2="1116.82" y2="619.02" xlink:href="#linear-gradient-13"/><linearGradient id="linear-gradient-62" x1="981.84" y1="765.31" x2="1082.95" y2="720.82" xlink:href="#linear-gradient-12"/><linearGradient id="linear-gradient-63" x1="16597.72" y1="-22702.06" x2="16030.69" y2="-22054.02" gradientTransform="matrix(-1, 0, 0, 1, -3041.91, 0)" xlink:href="#linear-gradient-20"/><linearGradient id="linear-gradient-64" x1="3224.96" y1="-1234.58" x2="2657.93" y2="-586.54" xlink:href="#linear-gradient-20"/><linearGradient id="linear-gradient-65" x1="-4226.62" y1="1172.25" x2="-4115.97" y2="1463.43" gradientTransform="matrix(-1, 0, 0, 1, -3041.91, 0)" xlink:href="#linear-gradient-12"/><linearGradient id="linear-gradient-66" x1="-4089.33" y1="1120.08" x2="-3978.68" y2="1411.26" gradientTransform="matrix(-1, 0, 0, 1, -3041.91, 0)" xlink:href="#linear-gradient-12"/><linearGradient id="linear-gradient-67" x1="-3849.18" y1="1225.81" x2="-3906.45" y2="1299.58" gradientTransform="matrix(-1, 0, 0, 1, -3041.91, 0)" xlink:href="#linear-gradient-13"/><linearGradient id="linear-gradient-68" x1="-3806.4" y1="1259.03" x2="-3863.66" y2="1332.79" gradientTransform="matrix(-1, 0, 0, 1, -3041.91, 0)" xlink:href="#linear-gradient-13"/><linearGradient id="linear-gradient-69" x1="436.92" y1="739.9" x2="735.6" y2="1149.97" xlink:href="#linear-gradient-13"/><linearGradient id="linear-gradient-70" x1="-3799.29" y1="1111.29" x2="-3741.05" y2="1469.44" gradientTransform="matrix(-1, 0, 0, 1, -3041.91, 0)" xlink:href="#linear-gradient-13"/><linearGradient id="linear-gradient-71" x1="-3825.51" y1="1319.62" x2="-3653.71" y2="1432.21" gradientTransform="matrix(-1, 0, 0, 1, -3041.91, 0)" xlink:href="#linear-gradient-13"/></defs><g id="Background"><rect class="cls-2" width="3710" height="3710"/></g><g id="Illustration"><path class="cls-3" d="M2886.89,2830.17c-56,59-109.1,97.07-151,127.14-492.62,353.46-1075.51,250.43-1199.39,225.26-182.94-37.15-536.55-109-792.2-409.61-386.78-454.85-326.55-1171.44-26.54-1644.48,54.88-86.52,344.76-566.76,933.93-643.78,356.56-46.61,772.19,47.4,1073.19,299.57C3356.68,1313.6,3311.71,2382.94,2886.89,2830.17Z"/><path class="cls-4" d="M1791.34,2047.17s-16.78-355.62-187-439S1118.9,1487.43,1071,978.49c-28-298-44.68-427.91-53.67-484.46a33.69,33.69,0,0,1,37.13-38.8C1211.42,473.4,1723,557.74,1852.91,893.62,2006.87,1291.82,1791.34,2047.17,1791.34,2047.17Z"/><path class="cls-5" d="M1184.33,588.55c180.76,139.54,396.39,393.89,520.23,654.77,16.59,43.26,62.61,134.51,91.56,300.38,25.16,138.27,28,286.06,16.46,384.85a11.39,11.39,0,0,1-12.63,10c-10.74-1.26-10.14-12.76-10-12.4,9.3-168-14.2-374.7-75.9-558.29-78.17-225.25-232-438.1-388.07-616.81l-16-17.55C1189.31,599.35,1166,600,1175.59,589.33A6.5,6.5,0,0,1,1184.33,588.55Z"/><path class="cls-4" d="M2097.49,1949.78c32.58-60.67,94.84-107.13,137.22-161.39,134.65-172.4,266.18-409,424.38-440.62,131.67-26.33,410,190.48,499.72,264a17.11,17.11,0,0,1-7.54,30c-70.1,13.68-224.94,51.78-304.5,132.53-104.88,106.44-268.92,120.23-388.08,82.56-57.83-18.29-117.36-34.33-177.37-16.36-35.19,10.54-66.79,30.73-95.79,52.82C2164.13,1909.61,2127.49,1966.47,2097.49,1949.78Z"/><path class="cls-5" d="M2989,1587.21c-130.25-65.16-299-82.76-428.7-12.24l-12.3,6.77c-28.61,16-210.22,141.8-337.33,259.06a3.91,3.91,0,0,0-.22,5.52,4,4,0,0,0,5.41.32c78.07-62.77,182.65-139.26,263.16-195.18,87.15-61.42,147.09-102.5,270-105.58,135.71-1.47,237.68,47.12,237.35,47a3.13,3.13,0,0,0,2.64-5.68Z"/><path class="cls-4" d="M1638.76,2420.5c14.34,4-103.12-124.11-138-252s-112.47-342.17-252.93-449.74S982.6,1626,855.05,1779.71c-106.29,128.13-175.2,196.15-220,215.82-11.1,4.87-14.16,19.28-6.22,28.45,42.23,48.8,155.2,157.41,296.05,117.13,179.67-51.38,374.47-218.22,463.43-134.18s92.44,141.2,104.77,187.57S1543.84,2394.3,1638.76,2420.5Z"/><path class="cls-5" d="M941.51,1926.89c44.07-65.74,123.43-138.25,205-145.86,107-6,191,47.9,251.07,142.4,24.24,40.4,35.39,62.37,55.8,113.93,1.62,4.12-4.39,6.78-6.36,2.84-11.82-23.73-23.84-48.66-39.17-73.8-92.95-163.54-214.42-161.68-219.73-164.28-8.61,2.8-70.65-25.41-182.19,70.37a574.36,574.36,0,0,0-58.6,58.66l-.1.12a3.62,3.62,0,0,1-5.74-4.38Z"/><g class="cls-6"><path class="cls-4" d="M1077.55,3019.26a9.06,9.06,0,0,1-11.09-4.84c-4.23-9.31-8.12-18.93-11.56-28.61a9.05,9.05,0,0,1,5.5-11.56l.17-.06a9.05,9.05,0,0,1,11.39,5.55c3.26,9.2,7,18.35,11,27.19a9.06,9.06,0,0,1-4.5,12C1078.15,3019,1077.85,3019.16,1077.55,3019.26Zm-24.41-75a7.24,7.24,0,0,1-1,.28,9.05,9.05,0,0,1-10.7-7c-2.08-10-3.76-20.29-5-30.43a9,9,0,1,1,18-2.16c1.16,9.64,2.75,19.36,4.73,28.92A9,9,0,0,1,1053.14,2944.3Zm-7.31-78.46a9.06,9.06,0,0,1-11.91-8.77c.2-10.24.85-20.6,1.93-30.79a9.05,9.05,0,1,1,18,1.91c-1,9.68-1.65,19.51-1.84,29.24A9.06,9.06,0,0,1,1045.83,2865.84Zm10.43-78.15a9,9,0,0,1-5.06.19,9,9,0,0,1-6.58-11c2.49-9.95,5.44-19.9,8.77-29.59a9.05,9.05,0,1,1,17.12,5.88c-3.16,9.2-6,18.65-8.33,28.1A9,9,0,0,1,1056.26,2787.69Zm27.59-73.86a9,9,0,0,1-10.94-12.67c4.62-9.12,9.7-18.17,15.1-26.9a9,9,0,1,1,15.39,9.52c-5.13,8.29-10,16.89-14.35,25.56A9,9,0,0,1,1083.85,2713.83Zm43.23-65.91a9,9,0,0,1-9.84-14.35c6.54-7.89,13.5-15.59,20.68-22.9a9.05,9.05,0,1,1,12.9,12.7c-6.82,6.94-13.43,14.25-19.64,21.75A9,9,0,0,1,1127.08,2647.92Zm307.68-125.47a9.07,9.07,0,0,1-3.8.42c-9.67-1-19.51-1.62-29.25-1.79a9.05,9.05,0,1,1,.32-18.1c10.26.19,20.63.82,30.81,1.88a9.05,9.05,0,0,1,1.92,17.59Zm-250.94,70.82a9.05,9.05,0,0,1-8.38-15.77c8.13-6.23,16.63-12.19,25.26-17.7a9,9,0,1,1,9.74,15.25c-8.2,5.23-16.27,10.89-24,16.81A9.12,9.12,0,0,1,1183.82,2593.27Zm172.12-70.12a9.3,9.3,0,0,1-1.77.4c-9.66,1.18-19.39,2.79-28.93,4.79a9,9,0,1,1-3.71-17.71c10-2.1,20.28-3.8,30.44-5.05a9.05,9.05,0,0,1,4,17.57Zm-104.6,29.51a9.05,9.05,0,0,1-6.62-16.82c9.31-4.25,18.92-8.16,28.58-11.61l.18-.07a9.05,9.05,0,0,1,5.91,17.11c-9.17,3.28-18.31,7-27.15,11Q1251.79,2552.5,1251.34,2552.66Z"/><path class="cls-4" d="M1497.1,2534.75a9,9,0,0,1-5.4.1c-4.48-1.31-9.06-2.55-13.61-3.69a9,9,0,1,1,4.38-17.56c4.8,1.2,9.61,2.5,14.32,3.88a9,9,0,0,1,.31,17.27Z"/></g><g class="cls-6"><path class="cls-4" d="M1710.48,2709.61a9,9,0,0,1-10.87-4.39c-2.16-4.14-4.44-8.3-6.79-12.37a9.05,9.05,0,0,1,15.69-9c2.46,4.28,4.87,8.67,7.14,13a9,9,0,0,1-5.17,12.77Z"/><path class="cls-4" d="M1510.18,3207.13q-5.92,2-12,3.77a9.05,9.05,0,0,1-5.16-17.35c9.29-2.76,18.44-5.89,27.31-9.34a9,9,0,0,1,6.56,16.86C1521.45,3203.21,1515.81,3205.25,1510.18,3207.13Zm-58.58,14.21a9.12,9.12,0,0,1-1.5.36c-10,1.54-20.13,2.67-30.18,3.37a9.05,9.05,0,0,1-1.25-18.06c9.55-.66,19.19-1.73,28.67-3.19a9,9,0,0,1,4.26,17.52Zm118.4-40.58a9,9,0,0,1-7.26-16.49c8.35-4.65,16.61-9.73,24.57-15.09a9,9,0,1,1,10.11,15c-8.37,5.64-17.08,11-25.87,15.89A9.23,9.23,0,0,1,1570,3180.76Zm-195.92,43.89a9.19,9.19,0,0,1-3.49.44c-10.06-.69-20.21-1.82-30.18-3.36a9,9,0,1,1,2.76-17.88c9.46,1.46,19.1,2.53,28.66,3.18a9.05,9.05,0,0,1,2.25,17.62Zm259.05-88.9a9,9,0,0,1-8.91-15.32c7.12-6.38,14.06-13.15,20.65-20.12a9,9,0,1,1,13.16,12.42c-6.93,7.34-14.24,14.47-21.74,21.18A9.06,9.06,0,0,1,1633.13,3135.75Zm51.72-57.77a9,9,0,0,1-10.24-13.84c5.57-7.8,10.88-15.92,15.77-24.15a9.05,9.05,0,1,1,15.56,9.26c-5.16,8.65-10.74,17.2-16.6,25.41A8.93,8.93,0,0,1,1684.85,3078Zm37.9-67.67a9,9,0,0,1-11.2-12.11c3.75-8.84,7.16-17.92,10.14-27a9,9,0,1,1,17.19,5.65c-3.14,9.56-6.73,19.12-10.66,28.42A9.07,9.07,0,0,1,1722.75,3010.31ZM1745,2936a9,9,0,0,1-11.76-10.21c1.72-9.43,3.06-19,4-28.56a9.05,9.05,0,1,1,18,1.72c-1,10-2.37,20.16-4.18,30.09A9.06,9.06,0,0,1,1745,2936Zm5.38-77.42a9.23,9.23,0,0,1-2.49.46,9.05,9.05,0,0,1-9.42-8.66c-.4-9.56-1.21-19.22-2.42-28.73a9,9,0,1,1,18-2.28c1.27,10,2.13,20.19,2.55,30.24A9,9,0,0,1,1750.36,2858.57Zm-11.75-76.66-.53.16a9,9,0,0,1-11.08-6.4c-1.83-6.81-3.88-13.65-6.11-20.33q-1.22-3.63-2.5-7.21a9,9,0,0,1,5.47-11.57,9,9,0,0,1,11.57,5.46c.9,2.52,1.77,5,2.62,7.59,2.35,7,4.51,14.22,6.43,21.38A9.05,9.05,0,0,1,1738.61,2781.91Z"/><path class="cls-4" d="M1297.52,3210.74a9,9,0,0,1-5.45.09c-4.69-1.41-9.44-2.93-14.12-4.55a9,9,0,1,1,5.89-17.11c4.44,1.53,9,3,13.41,4.32a9,9,0,0,1,.27,17.25Z"/></g><path class="cls-4" d="M1275.86,3107.32a4.23,4.23,0,0,0,4.9-.27l40.19-32.16a224.33,224.33,0,0,0,71.58,12.42l27,43.76a4.24,4.24,0,0,0,4.53,1.9l60.23-13.56a4.22,4.22,0,0,0,3.28-3.65l5.68-51.13a224.22,224.22,0,0,0,59.36-41.88l50.09,11.83a4.23,4.23,0,0,0,4.55-1.85l33-52.18a4.23,4.23,0,0,0-.28-4.9l-32.15-40.2a224.31,224.31,0,0,0,12.41-71.57l43.76-27a4.24,4.24,0,0,0,1.91-4.53l-13.56-60.23a4.25,4.25,0,0,0-3.66-3.28l-51.13-5.68a224,224,0,0,0-41.87-59.36l11.83-50.1a4.22,4.22,0,0,0-1.85-4.54l-52.18-33a4.26,4.26,0,0,0-4.91.27l-40.19,32.16a224,224,0,0,0-71.58-12.41l-27-43.77a4.23,4.23,0,0,0-4.52-1.9L1305.05,2604a4.21,4.21,0,0,0-3.27,3.66l-5.68,51.12a224.29,224.29,0,0,0-59.36,41.88l-50.1-11.83a4.24,4.24,0,0,0-4.55,1.85l-33,52.18a4.21,4.21,0,0,0,.27,4.9l32.15,40.2a224.32,224.32,0,0,0-12.41,71.58l-43.76,27a4.24,4.24,0,0,0-1.9,4.53l13.55,60.23a4.23,4.23,0,0,0,3.66,3.28l51.13,5.68a224.06,224.06,0,0,0,41.88,59.36l-11.84,50.1a4.22,4.22,0,0,0,1.86,4.54Z"/><path class="cls-7" d="M1414.31,2920.6a62.08,62.08,0,1,1,8.41-3.51A62.16,62.16,0,0,1,1414.31,2920.6Zm-34.6-104.06a49,49,0,0,0-6.51,2.72,47.38,47.38,0,1,0,6.51-2.72Z"/><path class="cls-8" d="M1443.91,3005.22a155.91,155.91,0,0,1-15.1,4.21h0c-1.62.36-3.24.7-4.87,1a153.13,153.13,0,0,1-24.3,2.68h-.33l-.94,0c-.61,0-1.22,0-1.84,0a3.62,3.62,0,0,1-3.46-2.47,3.76,3.76,0,0,1-.19-1.12,3.62,3.62,0,0,1,3.59-3.65,145.5,145.5,0,0,0,135.61-96.3,144.38,144.38,0,0,0,5-81,146.77,146.77,0,0,0-4-14.42,145.4,145.4,0,0,0-169.71-95.48c-78.23,17.61-127.5,95.53-109.9,173.73a145.26,145.26,0,0,0,36.48,68.3,3.45,3.45,0,0,1,.81,1.34,3.62,3.62,0,0,1-6,3.65,152.9,152.9,0,0,1-38.31-71.7c-18.47-82.1,33.31-163.92,115.37-182.39A152.65,152.65,0,0,1,1540,2811.92a155.54,155.54,0,0,1,4.22,15.12,152.65,152.65,0,0,1-100.27,178.18Z"/><g class="cls-6"><path class="cls-4" d="M1689.13,2681.63a7,7,0,0,1-8.55-3.73c-3.25-7.16-6.25-14.58-8.9-22a7,7,0,0,1,4.23-8.9l.13-.05a7,7,0,0,1,8.78,4.28c2.51,7.09,5.36,14.13,8.46,20.94a7,7,0,0,1-3.47,9.23A4.37,4.37,0,0,1,1689.13,2681.63Zm-18.81-57.74a7.27,7.27,0,0,1-.8.22,7,7,0,0,1-8.24-5.41c-1.61-7.75-2.9-15.64-3.84-23.45a7,7,0,1,1,13.84-1.66c.9,7.42,2.12,14.92,3.65,22.28A7,7,0,0,1,1670.32,2623.89Zm-5.63-60.45a7,7,0,0,1-9.18-6.75c.16-7.89.66-15.87,1.5-23.72a7,7,0,1,1,13.86,1.47c-.79,7.45-1.27,15-1.42,22.53A7,7,0,0,1,1664.69,2563.44Zm8-60.2a7,7,0,0,1-9-8.31c1.92-7.66,4.19-15.33,6.76-22.79a7,7,0,1,1,13.18,4.53c-2.43,7.09-4.59,14.37-6.42,21.65A7,7,0,0,1,1672.72,2503.24Zm21.26-56.9a7,7,0,0,1-8.43-9.76c3.56-7,7.48-14,11.63-20.72a7,7,0,1,1,11.86,7.33c-4,6.39-7.67,13-11,19.69A7,7,0,0,1,1694,2446.34Zm33.31-50.78a7,7,0,0,1-7.59-11c5-6.08,10.4-12,15.93-17.64a7,7,0,1,1,9.94,9.78c-5.25,5.35-10.35,11-15.13,16.75A6.86,6.86,0,0,1,1727.29,2395.56Zm237-96.65a7.16,7.16,0,0,1-2.93.32c-7.45-.78-15-1.25-22.54-1.38a7,7,0,1,1,.25-13.94c7.9.14,15.89.63,23.73,1.45a7,7,0,0,1,1.49,13.55ZM1771,2353.46a7,7,0,0,1-6.45-12.14c6.26-4.81,12.81-9.4,19.46-13.64a7,7,0,0,1,7.5,11.75c-6.31,4-12.53,8.39-18.47,13A7.16,7.16,0,0,1,1771,2353.46Zm132.6-54a6.67,6.67,0,0,1-1.37.31c-7.44.91-14.93,2.15-22.28,3.69a7,7,0,1,1-2.86-13.64c7.73-1.62,15.62-2.93,23.45-3.89a7,7,0,0,1,3.06,13.53ZM1823,2322.17a7,7,0,0,1-5.1-13c7.17-3.28,14.58-6.29,22-8.95l.14,0a7,7,0,0,1,4.55,13.17c-7.07,2.53-14.1,5.39-20.92,8.5A6.55,6.55,0,0,1,1823,2322.17Z"/><path class="cls-4" d="M2012.34,2308.38a6.93,6.93,0,0,1-4.16.08c-3.45-1-7-2-10.49-2.85a7,7,0,0,1,3.38-13.52c3.69.92,7.4,1.92,11,3a7,7,0,0,1,.24,13.3Z"/></g><g class="cls-6"><path class="cls-4" d="M2176.72,2443.09a7,7,0,0,1-8.38-3.39c-1.66-3.18-3.42-6.39-5.22-9.52a7,7,0,1,1,12.08-7c1.9,3.3,3.75,6.68,5.5,10a7,7,0,0,1-2.95,9.41A8.32,8.32,0,0,1,2176.72,2443.09Z"/><path class="cls-4" d="M2022.41,2826.36q-4.56,1.53-9.21,2.91a7,7,0,1,1-4-13.37c7.15-2.12,14.2-4.53,21-7.19a7,7,0,0,1,5.06,13C2031.09,2823.35,2026.75,2824.91,2022.41,2826.36Zm-45.13,10.95a7.15,7.15,0,0,1-1.15.28c-7.69,1.18-15.51,2.06-23.25,2.59a7,7,0,1,1-1-13.9c7.35-.51,14.78-1.34,22.09-2.47a7,7,0,0,1,3.27,13.5Zm91.22-31.26a7,7,0,0,1-5.6-12.71c6.44-3.58,12.8-7.49,18.93-11.62a7,7,0,1,1,7.79,11.56c-6.45,4.35-13.16,8.47-19.93,12.24A7.35,7.35,0,0,1,2068.5,2806.05Zm-150.94,33.81a7,7,0,0,1-2.68.34c-7.75-.53-15.58-1.4-23.25-2.59a7,7,0,1,1,2.12-13.77c7.29,1.12,14.72,1.95,22.08,2.45a7,7,0,0,1,1.73,13.57Zm199.57-68.48a7,7,0,0,1-6.86-11.81c5.48-4.91,10.83-10.12,15.9-15.5a7,7,0,0,1,10.14,9.57c-5.34,5.66-11,11.15-16.74,16.32A7.29,7.29,0,0,1,2117.13,2771.38Zm39.84-44.51a7,7,0,0,1-7.88-10.66c4.29-6,8.38-12.27,12.15-18.6a7,7,0,1,1,12,7.13c-4,6.66-8.27,13.25-12.79,19.57A6.91,6.91,0,0,1,2157,2726.87Zm29.2-52.13a7,7,0,0,1-8.62-9.33c2.88-6.81,5.51-13.81,7.8-20.81a7,7,0,1,1,13.25,4.35c-2.42,7.37-5.18,14.74-8.22,21.9A7,7,0,0,1,2186.17,2674.74Zm17.13-57.25a7,7,0,0,1-9.06-7.87c1.33-7.26,2.35-14.67,3.06-22a7,7,0,0,1,13.88,1.34c-.75,7.72-1.83,15.52-3.22,23.17A7,7,0,0,1,2203.3,2617.49Zm4.14-59.65a6.4,6.4,0,0,1-1.92.35,7,7,0,0,1-7.25-6.67c-.31-7.36-.94-14.8-1.87-22.13a7,7,0,1,1,13.83-1.75c1,7.71,1.64,15.55,2,23.3A7,7,0,0,1,2207.44,2557.84Zm-9.05-59.05-.41.12a7,7,0,0,1-8.54-4.93c-1.4-5.25-3-10.52-4.7-15.66-.62-1.87-1.27-3.72-1.93-5.56a7,7,0,0,1,4.22-8.91,6.89,6.89,0,0,1,8.91,4.21c.69,1.94,1.37,3.88,2,5.84,1.81,5.41,3.47,11,4.95,16.48A7,7,0,0,1,2198.39,2498.79Z"/><path class="cls-4" d="M1858.59,2829.14a6.91,6.91,0,0,1-4.2.07c-3.62-1.08-7.28-2.26-10.88-3.5a7,7,0,1,1,4.53-13.18c3.43,1.18,6.91,2.3,10.34,3.32a7,7,0,0,1,.21,13.29Z"/></g><path class="cls-4" d="M1841.9,2749.47a3.23,3.23,0,0,0,3.77-.21l31-24.77a172.51,172.51,0,0,0,55.14,9.56l20.83,33.72a3.25,3.25,0,0,0,3.49,1.46l46.4-10.44A3.25,3.25,0,0,0,2005,2756l4.38-39.38a172.9,172.9,0,0,0,45.73-32.27l38.59,9.12a3.25,3.25,0,0,0,3.5-1.43l25.43-40.2a3.25,3.25,0,0,0-.21-3.77l-24.77-31a172.51,172.51,0,0,0,9.56-55.14l33.71-20.83a3.24,3.24,0,0,0,1.47-3.48L2132,2491.21a3.25,3.25,0,0,0-2.82-2.52l-39.39-4.38a172.64,172.64,0,0,0-32.26-45.73l9.12-38.59a3.26,3.26,0,0,0-1.43-3.5l-40.2-25.43a3.27,3.27,0,0,0-3.78.21l-31,24.77a172.84,172.84,0,0,0-55.14-9.56l-20.83-33.71a3.24,3.24,0,0,0-3.49-1.47l-46.4,10.44a3.25,3.25,0,0,0-2.52,2.82l-4.38,39.39a172.64,172.64,0,0,0-45.73,32.26l-38.59-9.12a3.26,3.26,0,0,0-3.5,1.43l-25.43,40.2a3.25,3.25,0,0,0,.21,3.78l24.77,31a172.61,172.61,0,0,0-9.56,55.14l-33.72,20.83a3.25,3.25,0,0,0-1.46,3.49l10.44,46.4a3.28,3.28,0,0,0,2.82,2.53l39.39,4.37a172.64,172.64,0,0,0,32.26,45.73l-9.12,38.59a3.26,3.26,0,0,0,1.43,3.51Z"/><path class="cls-9" d="M1948.56,2605.63a47.85,47.85,0,1,1,6.48-2.71A47.06,47.06,0,0,1,1948.56,2605.63Zm-26.66-80.16a36.66,36.66,0,1,0,44.25,18.24,36.66,36.66,0,0,0-44.25-18.24Z"/><path class="cls-10" d="M1971.36,2670.82a118.28,118.28,0,0,1-11.64,3.24h0q-1.86.42-3.75.78a116.81,116.81,0,0,1-18.71,2.06H1937l-.72,0-1.42,0a2.8,2.8,0,0,1-2.67-1.9,2.72,2.72,0,0,1-.14-.86,2.8,2.8,0,0,1,2.76-2.82,112.07,112.07,0,0,0,108.35-136.59,114.41,114.41,0,0,0-3.09-11.1A112,112,0,0,0,1824.66,2584q1.26,5.57,3.06,11a111.55,111.55,0,0,0,25,41.65,2.88,2.88,0,0,1,.63,1,2.79,2.79,0,0,1-4.67,2.81,117.22,117.22,0,0,1-26.3-43.73,117.58,117.58,0,0,1,85.67-152,117.6,117.6,0,0,1,137.26,77.22,118.67,118.67,0,0,1,3.24,11.66,117.58,117.58,0,0,1-77.24,137.26Z"/><g class="cls-6"><path class="cls-4" d="M1898.94,989.24a5.09,5.09,0,0,1-6-.79c-3.09-3-6.13-6.16-9-9.35a5.09,5.09,0,1,1,7.52-6.85c2.77,3,5.67,6,8.62,8.92a5.09,5.09,0,0,1,.09,7.19A5.33,5.33,0,0,1,1898.94,989.24Z"/><path class="cls-4" d="M1873.56,959.49a5.07,5.07,0,0,1-6.64-1.5,218.54,218.54,0,0,1-12-18.9q-1.15-2-2.27-4.13a5.26,5.26,0,0,1,2.08-6.88,5.07,5.07,0,0,1,6.88,2.08c.71,1.32,1.43,2.64,2.17,3.94a211.09,211.09,0,0,0,11.39,18,5.09,5.09,0,0,1-1.22,7.09C1873.85,959.31,1873.71,959.41,1873.56,959.49ZM1848.64,913a5,5,0,0,1-.66.32,5.09,5.09,0,0,1-6.58-2.91,220.65,220.65,0,0,1-8.22-25.78,5.08,5.08,0,1,1,9.86-2.48,209.1,209.1,0,0,0,7.84,24.59A5.08,5.08,0,0,1,1848.64,913Zm-12.89-51.18a5,5,0,0,1-1.87.61,5.08,5.08,0,0,1-5.67-4.42,219.86,219.86,0,0,1-1.63-27,5.09,5.09,0,0,1,10.17,0,209.34,209.34,0,0,0,1.55,25.77A5.09,5.09,0,0,1,1835.75,861.78Zm.09-52.79a5.09,5.09,0,0,1-7.54-5.07,221.33,221.33,0,0,1,5-26.59,5.09,5.09,0,0,1,9.86,2.5,209.14,209.14,0,0,0-4.8,25.36A5.07,5.07,0,0,1,1835.84,809Zm13-51.16a5.09,5.09,0,0,1-7.23-6.28A222.73,222.73,0,0,1,1852.91,727a5.09,5.09,0,1,1,9,4.82,211.34,211.34,0,0,0-10.81,23.43A5.13,5.13,0,0,1,1848.81,757.83Zm25-46.46a5.08,5.08,0,0,1-6.64-7.37,217.62,217.62,0,0,1,17-21,5.08,5.08,0,1,1,7.5,6.86,209.81,209.81,0,0,0-16.19,20.07A5.09,5.09,0,0,1,1873.81,711.37Zm35.59-38.93a5.08,5.08,0,0,1-5.79-8.3,220.52,220.52,0,0,1,21.64-16.25,5.09,5.09,0,1,1,5.6,8.49,208.92,208.92,0,0,0-20.64,15.5A5.33,5.33,0,0,1,1909.4,672.44Zm68.46-39.28a5.5,5.5,0,0,1-.82.36,212.4,212.4,0,0,0-20.76,8.56q-1.53.72-3,1.47a5.09,5.09,0,0,1-6.81-2.3,5,5,0,0,1,2.29-6.81q1.59-.8,3.21-1.56a222.27,222.27,0,0,1,21.74-9,5.09,5.09,0,0,1,4.18,9.23Z"/></g><g class="cls-6"><path class="cls-4" d="M2156.5,1021a5.08,5.08,0,0,1-5-8.83,211.11,211.11,0,0,0,21.14-14,5.08,5.08,0,1,1,6.13,8.11,219.58,219.58,0,0,1-22.17,14.72Zm-23.23,11.67-.5.25a223.07,223.07,0,0,1-25,9,5.08,5.08,0,0,1-2.87-9.75,213.38,213.38,0,0,0,23.9-8.61,5.08,5.08,0,0,1,4.51,9.09Zm64.64-43a5.08,5.08,0,0,1-6-8.08A210.64,210.64,0,0,0,2209,962.9a5.08,5.08,0,0,1,7.91,6.39,219.43,219.43,0,0,1-18,19.65A4.94,4.94,0,0,1,2197.91,989.72Zm-114.48,57.58a5.27,5.27,0,0,1-1.67.59,218.29,218.29,0,0,1-26.5,2.71,5.08,5.08,0,1,1-.41-10.16,210.11,210.11,0,0,0,25.26-2.59,5.09,5.09,0,0,1,3.32,9.45Zm147.1-97.95a5.08,5.08,0,0,1-6.81-7.12,208.83,208.83,0,0,0,12.11-22.31,5.09,5.09,0,0,1,9.22,4.31,223.83,223.83,0,0,1-12.7,23.39A5.1,5.1,0,0,1,2230.53,949.35Zm22-47a5.09,5.09,0,0,1-7.33-6,211.86,211.86,0,0,0,6.44-24.57,5.08,5.08,0,0,1,10,2,223.58,223.58,0,0,1-6.74,25.75A5.09,5.09,0,0,1,2252.51,902.33Zm10.08-50.94a5,5,0,0,1-2.87.64,5.08,5.08,0,0,1-4.69-5.45,206.9,206.9,0,0,0,.35-25.39,5.09,5.09,0,1,1,10.16-.48,219.17,219.17,0,0,1-.37,26.63A5.07,5.07,0,0,1,2262.59,851.39Z"/><path class="cls-4" d="M2031.3,1049.41a5.13,5.13,0,0,1-2.91.64c-4.33-.36-8.68-.85-12.91-1.45a5.09,5.09,0,1,1,1.43-10.07c4,.58,8.18,1,12.32,1.38a5.08,5.08,0,0,1,2.07,9.5Z"/></g><path class="cls-4" d="M2002.76,990.11a2.57,2.57,0,0,0,2.9-.72L2026,965.54a136.59,136.59,0,0,0,44.21-.83l21.2,23a2.57,2.57,0,0,0,2.92.62l34.44-15a2.57,2.57,0,0,0,1.53-2.57l-2.49-31.21a136.38,136.38,0,0,0,30.65-31.87l31.3,1.3a2.56,2.56,0,0,0,2.5-1.63l13.72-35a2.59,2.59,0,0,0-.73-2.9l-23.85-20.31a136.59,136.59,0,0,0-.83-44.21l23-21.2a2.59,2.59,0,0,0,.61-2.93l-15-34.44a2.58,2.58,0,0,0-2.57-1.53l-31.21,2.5a136.18,136.18,0,0,0-31.87-30.65l1.3-31.31a2.57,2.57,0,0,0-1.63-2.5l-35-13.71a2.59,2.59,0,0,0-2.9.72L2065,693.73a136.31,136.31,0,0,0-44.21.84l-21.2-23a2.58,2.58,0,0,0-2.93-.62L1962.21,686a2.57,2.57,0,0,0-1.54,2.56l2.5,31.21a136.37,136.37,0,0,0-30.65,31.87l-31.3-1.3a2.57,2.57,0,0,0-2.51,1.63l-13.71,35a2.57,2.57,0,0,0,.73,2.9l23.85,20.32a136.24,136.24,0,0,0,.83,44.2l-23,21.21a2.56,2.56,0,0,0-.62,2.92l15,34.44a2.57,2.57,0,0,0,2.56,1.53l31.21-2.49a136.58,136.58,0,0,0,31.87,30.65l-1.3,31.3a2.58,2.58,0,0,0,1.63,2.5Z"/><path class="cls-5" d="M2064.28,863.19A38.7,38.7,0,1,1,2069,860,38.67,38.67,0,0,1,2064.28,863.19ZM2031.61,805a29.25,29.25,0,0,0-3.46,2.3A28.29,28.29,0,0,0,2062.8,852h0a28.29,28.29,0,0,0-31.19-47Z"/><path class="cls-5" d="M2092.76,912.28a97,97,0,0,1-27.3,10.31l-.85.17a5.08,5.08,0,0,1-5.44-2.48,4.94,4.94,0,0,1-.56-1.49,5.11,5.11,0,0,1,4-6,85.83,85.83,0,0,0,17.38-5.49h0l.91-.41a84.78,84.78,0,0,0,32.86-26,85.91,85.91,0,0,0,11.37-20l.08-.17.21-.54A85.58,85.58,0,1,0,1996,898.56a5,5,0,0,1,1.48,1.64,5.08,5.08,0,0,1-7.38,6.63,95.48,95.48,0,0,1-27.79-30.91q-2.37-4.24-4.34-8.71a95.77,95.77,0,0,1,171.12-85.49,95.87,95.87,0,0,1-36.31,130.56Z"/><rect class="cls-11" x="1052.6" y="2245.48" width="451.68" height="47.25" transform="translate(-1045.1 1092.49) rotate(-33.75)"/><rect class="cls-12" x="2418.51" y="2041.13" width="47.25" height="481.98" transform="translate(-894.83 2473.92) rotate(-46.35)"/><rect class="cls-13" x="2119.68" y="1232.8" width="588.46" height="47.26" transform="translate(-246.74 1827.82) rotate(-39.62)"/><rect class="cls-14" x="1424.94" y="1054.56" width="47.25" height="549.14" transform="translate(-496.44 1615.27) rotate(-50.91)"/><circle class="cls-15" cx="1858.13" cy="1838.1" r="643.5"/><path class="cls-5" d="M1307.59,2105.61a3.38,3.38,0,0,1-3-1.92c-39.47-82.87-59.48-171.77-59.48-264.26,0-230.8,127.38-440.24,332.45-546.57a3.37,3.37,0,0,1,3.1,6c-202.81,105.17-328.8,312.31-328.8,540.58,0,91.47,19.79,179.41,58.82,261.36a3.36,3.36,0,0,1-1.6,4.49A3.22,3.22,0,0,1,1307.59,2105.61Z"/><path class="cls-5" d="M1537.48,2362.71a3.42,3.42,0,0,1-1.78-.51,622.37,622.37,0,0,1-188.65-183.38,3.38,3.38,0,1,1,5.63-3.73,615.48,615.48,0,0,0,186.59,181.38,3.38,3.38,0,0,1-1.79,6.24Z"/><path class="cls-5" d="M2278.84,1396.37a3.36,3.36,0,0,1-2.3-.91A606.93,606.93,0,0,0,1983,1243.25a3.37,3.37,0,0,1,1.35-6.61,613.66,613.66,0,0,1,296.81,153.89,3.37,3.37,0,0,1-2.31,5.84Z"/><circle class="cls-16" cx="1860.35" cy="1835.32" r="572.97"/><g class="cls-17"><path class="cls-2" d="M2172.65,2665.6,2093,1831c-191.3-70.7-432.5,8.31-432.5,8.31l-37.25,826.32Z"/><path class="cls-18" d="M1793.58,1689.57l-3.6,118.48a26.9,26.9,0,0,0,18,26.17c30.29,10.68,93,26.93,152.43,5.65a26.79,26.79,0,0,0,17.35-29.16l-17.81-121.14Z"/><path class="cls-19" d="M1827.32,2665.6c21.08-21.08,32.79-36.17,32.79-36.17l-24.95-70.7s-203.77,116.44-270.31,58.22,45.75-399.23,45.75-399.23l-162.2-295.26s-136.13,453.87-90.35,701.88a50.37,50.37,0,0,0,49.49,41.26Z"/><polygon class="cls-2" points="1791.41 1761.08 1884 1849.85 1817.13 1895.45 1758.03 1815.89 1791.41 1761.08"/><polygon class="cls-2" points="1968.73 1761.08 1876.14 1849.85 1943 1895.45 2002.11 1815.89 1968.73 1761.08"/><path class="cls-20" d="M1733,1473.32s20.8,212.1,66.54,266.16c0,0,137.24,12.47,187.14-16.64,0,0,35.35-106,31.19-247.44,0,0,6.82-128.66-135.15-139.31C1716.35,1323.61,1733,1473.32,1733,1473.32Z"/><path class="cls-21" d="M2003.3,1539.86s12.47-37.43,33.27-37.43-4.16,99.81-33.27,99.81Z"/><path class="cls-22" d="M1751.91,1549.69s-17.41-35.4-38-32.6,17.58,98.34,46.42,94.41Z"/><path class="cls-23" d="M1747.34,1585.22s4.66,126.69,60.39,190.94a28.66,28.66,0,0,0,20.3,9.71c28.44,1.36,101.15,3.81,142.14-4.36a29.1,29.1,0,0,0,22-19.08c10.07-29.54,27.57-76.14,21.55-183.06l-33.44,79.69c-24.78,65.86-38.22-14.08-49.73-13.15h-74.85c-7.89.63-16.64,49.9-45.87,35.47Z"/><path class="cls-24" d="M1961.71,1423.42s-106,109-221.4,108.55c0,0-65.55-175.09,63.37-204.2s133.08,8.32,133.08,8.32,148.37-37.19,81.31,176.78Z"/><path class="cls-25" d="M1996.84,2665.6h386.1a50.42,50.42,0,0,0,42.75-23.7h0c166.35-266.15-70.7-702.81-70.7-702.81l-124.76,328.53s108.13,108.13,49.91,278.63-295.27,37.43-295.27,37.43l8.32,79S1994.47,2663.75,1996.84,2665.6Z"/><polygon class="cls-26" points="1870.31 1857.43 1835.77 1880.94 1860.11 1928.29 1899.81 1928.29 1926.35 1884.27 1881.13 1853.34 1870.31 1857.43"/><polygon class="cls-27" points="1860.11 1928.29 1833.16 2376.95 1901.7 2500.88 1970.68 2381.42 1899.81 1928.29 1860.11 1928.29"/><path class="cls-28" d="M1570,2217.33a550.48,550.48,0,0,1,41.35,225.85l-6.44,222.42H1917.6l-15.9-316.86L1758,1815.93c-133.08,20.8-309.63,106.53-309.63,106.53Z"/><path class="cls-29" d="M2204.06,2665.6l9.54-184.53a830.94,830.94,0,0,1,47.65-277.31L2355,1939.09c-120.6-108.12-358.09-131.71-358.09-131.71l-95.2,541.36V2665.6Z"/><path class="cls-4" d="M1875.36,2330.1a2.27,2.27,0,0,1-1.74-.8l-128-147.63a2.31,2.31,0,0,1-.53-1.14l-12.9-79.13-47.38-9.53a2.32,2.32,0,0,1-1.85-2.17l-10.19-250.52a2.3,2.3,0,0,1,2.21-2.39,2.27,2.27,0,0,1,2.39,2.21l10.12,248.71,47.17,9.49a2.31,2.31,0,0,1,1.82,1.89l13,80.06,127.59,147.14a2.3,2.3,0,0,1-1.74,3.81Z"/><path class="cls-4" d="M1918.29,2330.1a2.32,2.32,0,0,1-1.74-3.84l127.59-148.4,13-80.74a2.32,2.32,0,0,1,1.82-1.9l47.17-9.57,10.12-250.83a2.25,2.25,0,0,1,2.39-2.23,2.33,2.33,0,0,1,2.21,2.42l-10.19,252.65a2.31,2.31,0,0,1-1.85,2.18l-47.38,9.61-12.9,79.81a2.34,2.34,0,0,1-.53,1.15L1920,2329.3A2.27,2.27,0,0,1,1918.29,2330.1Z"/></g><circle class="cls-30" cx="889.73" cy="2640.22" r="404.91"/><path class="cls-5" d="M543.31,2809.8a3.37,3.37,0,0,1-3-1.92,385,385,0,0,1-37.55-166.82c0-145.69,80.42-277.9,209.86-345a3.37,3.37,0,1,1,3.11,6c-127.2,66-206.22,195.87-206.22,339A378.38,378.38,0,0,0,546.35,2805a3.37,3.37,0,0,1-1.59,4.5A3.43,3.43,0,0,1,543.31,2809.8Z"/><path class="cls-5" d="M688,2971.58a3.39,3.39,0,0,1-1.78-.51,393,393,0,0,1-119.09-115.76,3.38,3.38,0,1,1,5.63-3.73,386,386,0,0,0,117,113.75,3.38,3.38,0,0,1-1.79,6.25Z"/><circle class="cls-5" cx="891.12" cy="2638.48" r="360.53"/><path class="cls-31" d="M713,2830.4c-16.64,17.77-41.15,33.13-58.4,42.7,25.76,31.84,60.61,63.72,106.75,94.93l8.68,7.51,10.62,4.63L816.88,2947S741,2909.17,713,2830.4Z"/><path class="cls-32" d="M1101.33,2549.8a350.33,350.33,0,0,1-35.59-54.31c-14-26.38-1.12,17.07-4.93-12.72-104.55-75.44-262-37.25-322.89-29.58a81.3,81.3,0,0,0-51.39,27.59c-52.18,60.38-166.69,225.72-31.91,392.32,17.25-9.57,41.76-24.93,58.4-42.7-14.91-42-16.13-95.75,15.12-161.62a155.5,155.5,0,0,0,4,15.48c43.08,136.46,45.37,250,45.28,276.18,0,3.55-4.43,15.53-1.32,17.26,103.91,57.78,227.45,11.5,227.45,11.5-25.87-128.64,65.55-373.74,90.69-429.09A35.52,35.52,0,0,1,1101.33,2549.8Z"/><path class="cls-33" d="M835.9,2343.52,825,2455.14s62.79,18.91,108.46-13.31l-32.11-101.45Z"/><path class="cls-34" d="M908.76,2216.3c1.51,1.42,63.78,123.7,63.78,123.7L902,2374.07l-76.23-107.13S883.46,2192.48,908.76,2216.3Z"/><path class="cls-35" d="M857,2269.91a11.27,11.27,0,0,0,.85,9.89l35.2,58.68a11.18,11.18,0,0,0,1.93,2.4c4.19,3.9,18.53,15.24,29.61-.2,9.45-13.17,18.31-25.13,27.81-30.07a11.26,11.26,0,0,1,15.19,5c5.8,11.49,17,34.93,24.09,57.14a11.22,11.22,0,0,1-6.52,13.75c-14.29,5.79-42.54,16.26-67.6,19.72a11.26,11.26,0,0,1-10.65-4.53c-10.78-14.77-41.17-56.06-51.55-66.39-9.63-9.6-27.42-6-35.44-3.68a11.26,11.26,0,0,1-9-1.18c-8.13-4.89-22.32-17.09-9.34-37.74a11.28,11.28,0,0,0-3.48-15.31c-9.08-6-18.93-17.18-9.55-35.33,9.5-18.38,26.47-20,38-18.62a11.67,11.67,0,0,0,12.26-6.82,7.45,7.45,0,0,1,5.81-4.57,10.92,10.92,0,0,0,8.84-12.83c-2-10.4-.5-23.91,16.11-33,30.45-16.74,57.12,10.54,63.91,33.57s-27.27,39.3-48.69,42C869.05,2243.76,860.42,2260.93,857,2269.91Z"/><path class="cls-36" d="M868.53,2356.85s-13.54-39.62-30.87-38.17-31,18.73-9.5,38.14C854.89,2381,868.53,2356.85,868.53,2356.85Z"/><path class="cls-37" d="M722.43,2658.58c-22.85-62.53-14.56-138-14.48-138.79l6.3.72c-.08.75-8.2,74.8,14.13,135.89Z"/><path class="cls-38" d="M1313.56,2584.9c-118.25,17.75-195.32-56.86-252.75-102.13C985,2423,926,2452.09,926,2452.09l80.86,154.33c120.76,113.86,244.57,88.57,322.63,51.68A150.6,150.6,0,0,0,1313.56,2584.9Z"/><path class="cls-39" d="M1479.76,2514.36l-39.22,21.1c-47,28.63-89.11,43.76-127,49.44a150.6,150.6,0,0,1,15.91,73.2c49.69-23.49,80.84-51.68,80.84-51.68C1499.14,2553.45,1479.76,2514.36,1479.76,2514.36Z"/><path class="cls-40" d="M1595.28,2569.62a28.91,28.91,0,0,0-16.91-18.51l-79.58-32s-1.2-10.21,16.81-17.14,13.81-27.12,13.81-27.12-24.62,11.23-60.65,29c-20.61,10.18-32.17,28.16-38.3,41.7l20.48,26.94c49,14.74,98.69,17.55,148.74,11.71Z"/><circle class="cls-41" cx="2824.13" cy="2824.78" r="430.22"/><path class="cls-5" d="M3192.2,3004.75a3.3,3.3,0,0,1-1.45-.33,3.37,3.37,0,0,1-1.59-4.5,402.07,402.07,0,0,0,39.21-174.25c0-152.19-84-290.3-219.21-360.41a3.37,3.37,0,1,1,3.1-6c137.47,71.28,222.86,211.68,222.86,366.4a408.73,408.73,0,0,1-39.87,177.16A3.38,3.38,0,0,1,3192.2,3004.75Z"/><path class="cls-5" d="M3038.51,3176.64a3.38,3.38,0,0,1-1.79-6.25,410.31,410.31,0,0,0,124.4-120.92,3.38,3.38,0,1,1,5.63,3.73,417.12,417.12,0,0,1-126.46,122.93A3.42,3.42,0,0,1,3038.51,3176.64Z"/><circle class="cls-5" cx="2822.65" cy="2822.93" r="383.06"/><path class="cls-42" d="M2330.79,2519.14a6.7,6.7,0,0,1,12.39,1.32c6,21.62,20.55,59.36,51.07,72.77q2.3,1,4.39,2a15.47,15.47,0,0,0-1.91-14c-9.48-14.5,7.64-34.3,7.64-34.3s1.14,17.44,14.39,28.42c11.42,9.46,16.9,30.5,9.1,47.77-16.51,64.15-41.25,149,55.09,211s232-117,232-117l-67.33,213.46s-103.94,76.7-224.83-31.15S2382,2634.67,2382,2634.67,2289.83,2597.47,2330.79,2519.14Z"/><path class="cls-43" d="M2731.82,2403.49s-27.91-125.19,115.5-92c0,0,69.61-11.37,73.15,54.33,0,0,44.87,29.57,12,86.43,0,0,133.36-51.51,191.46,65.37s4.69,181.2-51.3,197.95c0,0,45.37,22.78,23.89,74.21s-130.2,87.67-194.43,25.13c0,0-182.77,24.16-179.11-104.94,0,0-85-54.89,4.27-161.58S2731.82,2403.49,2731.82,2403.49Z"/><path class="cls-44" d="M2724,2693.68c28.81-8.64,112.72-24.59,192.53,49.06a49.46,49.46,0,0,1,14.24,49.25c-21.44,78.92-81.43,304.42-31.84,405.3,0,0-89,27.46-188.35-9.77,0,0-33.72-150.32-89.75-232.16-38.68-56.51,61.68-212.19,87.07-249.8A29.75,29.75,0,0,1,2724,2693.68Z"/><path class="cls-45" d="M2803.51,2536.89s42.62,120.55,45.83,173.73c0,0-47.11,21.42-91.49-14.73,0,0-4.66-120.41-11.39-142Z"/><path class="cls-46" d="M2744.31,2372.53s-111.47,156-44.83,201.31,146-65.55,146-65.55,25.87-85.38-1.18-114.35S2744.31,2372.53,2744.31,2372.53Z"/><path class="cls-47" d="M2795.91,2335.25s-51.21,12.13-58.39,35.3,72.62,44.66,95,45.71l18,93.5s53.25-88,32.16-138.75S2795.91,2335.25,2795.91,2335.25Z"/><path class="cls-48" d="M2823.85,2496.81s43.39-50.25,60.65-17.49-39.05,57.35-58.55,41.27Z"/><path class="cls-49" d="M2927.89,2758.49s136.15,113.14,169.94,267.76-198.95,171-198.95,171-31.59-35.28-69.1-22.7-2.91-61.57,41-61.38,23.56,34.9,85.64,6.78c60.48-27.4,97.86-112.12-56.44-240.55a69.86,69.86,0,0,1-20.38-27.75C2849.6,2776.23,2873.38,2726.76,2927.89,2758.49Z"/><circle class="cls-50" cx="2767.78" cy="954.21" r="406.74"/><path class="cls-5" d="M3115.76,1124.54a3.25,3.25,0,0,1-1.44-.33,3.37,3.37,0,0,1-1.6-4.5,380,380,0,0,0,37.06-164.66c0-143.82-79.38-274.33-207.15-340.59a3.37,3.37,0,1,1,3.1-6c130,67.43,210.8,200.23,210.8,346.58a386.64,386.64,0,0,1-37.72,167.57A3.36,3.36,0,0,1,3115.76,1124.54Z"/><path class="cls-5" d="M2970.46,1287.05a3.38,3.38,0,0,1-1.79-6.25,387.82,387.82,0,0,0,117.56-114.27,3.38,3.38,0,1,1,5.63,3.73,394.75,394.75,0,0,1-119.62,116.28A3.42,3.42,0,0,1,2970.46,1287.05Z"/><circle class="cls-5" cx="2766.38" cy="952.45" r="362.16"/><path class="cls-51" d="M2869.52,886.68c6.19,2.67-25.69,252.16,14.35,408.45,0,0-67.06,23.67-153.38,19.61,0,0-144.1-220-147.87-245.34-4.28-28.72,17.79-176,17.79-176S2717,820.73,2869.52,886.68Z"/><path class="cls-52" d="M2684.13,986.88c-71.22,2.42-76.89-58.61-72.83-99.3,23.42-11.5,82.93-35.23,161.61-26.75C2774.37,895.57,2769.64,984,2684.13,986.88Z"/><path class="cls-53" d="M2663,754.34s35.38,74.75,56.05,106.27a21.64,21.64,0,0,1-4.38,28.62c-9.8,8-25.72,15.86-50.45,16.11a23,23,0,0,1-22.28-17L2618.6,803Z"/><path class="cls-54" d="M2600.41,893.42s-104.1,190.23-292.14,37l-21.43,33.95s137.68,212.68,307.41,65.08Z"/><path class="cls-55" d="M2164.14,959.84a26.44,26.44,0,0,1,15.45-16.91l72.74-29.25s1.1-9.33-15.37-15.67-12.62-24.78-12.62-24.78,22.5,10.26,55.43,26.54c18.84,9.31,29.41,25.74,35,38.11l-18.72,24.63c-44.83,13.46-90.2,16-135.94,10.7Z"/><path class="cls-56" d="M2869.52,886.68s176.65,91.49,157.14,264.07-287.09,14.15-287.09,14.15l6.49-41.53s163.7,47.5,191,6.64c20-30-47.05-100.18-84.21-135.47a43.93,43.93,0,0,1-9.72-50.17Z"/><path class="cls-57" d="M2763.65,1223.39l-74.08-258.7a7.52,7.52,0,0,0-6.38-5.43c-13.42-1.57-52.31-6-97.22-9.76-54.08-4.58-116.9-8.29-154.43-5.13a7.57,7.57,0,0,0-6.19,10.89c21.34,43.18,109.14,218.84,153.11,276.39a7.63,7.63,0,0,0,6.11,3l171.88-1.6A7.57,7.57,0,0,0,2763.65,1223.39Z"/><path class="cls-58" d="M2578.29,927.07l-53.71-9a3.85,3.85,0,0,0-4.29,5l5.31,16.11a3.86,3.86,0,0,0,3.15,2.61l51.69,6.91a3.86,3.86,0,0,0,4.26-4.7L2581.41,930A3.84,3.84,0,0,0,2578.29,927.07Z"/><path class="cls-58" d="M2618.51,972.54l-4.43-23a5.33,5.33,0,0,0-4.69-4.3l-108.48-11a5.32,5.32,0,0,0-5.72,6.54l6.9,28.72a5.33,5.33,0,0,0,4.91,4.08l106,5.33A5.32,5.32,0,0,0,2618.51,972.54Z"/><path class="cls-59" d="M2745.76,1160.89s10.32-42.43,6.15-57.49-12.23-34.41-39.11-30.11-58.59,15.63-58.59,15.63,1.6,19.61,22,13.28l-12.67,9.81s1.81,15.7,19.07,7.31l-11.78,13s7.41,12.9,20.1,4.62S2709.75,1166,2745.76,1160.89Z"/><path class="cls-60" d="M2542,692.77s-16.38,37.84,2.86,95.36,50.7,62.53,70.62,48.31,45.75-39.64,49-91.75S2564.59,644.91,2542,692.77Z"/><path class="cls-61" d="M2625.6,741.3s-34.76-77.85-86.89-29.35l-4,20s-49.65-14.15-33.33-59.13,75.64-75.51,128.74-46.35S2701.25,690,2698.4,731s-33.55,26.94-33.55,26.94-5.91-30.11-20.33-35.46-14.11,17.44-14.11,17.44Z"/><path class="cls-62" d="M2637.55,742.25s-18.1-39.91,7.26-41.36,15,38.48,10,53.05Z"/><path class="cls-63" d="M2652,655.37c-14.21-1.73-19.92-19.29-10.26-29.84,31.19-34.08,90.06-71.89,173.93-13.87,94.48,65.36,145.6,94.93,168.81,88.72,15.24-4.07,28.49,11,21.29,25-5.32,10.38-16.16,21.22-36.18,31.1C2815.1,832.73,2735.27,665.51,2652,655.37Z"/><circle class="cls-64" cx="1011.56" cy="1008.01" r="390.65"/><path class="cls-5" d="M677.34,1171.74a3.37,3.37,0,0,1-3.05-1.93,371.39,371.39,0,0,1-36.24-161c0-140.61,77.61-268.2,202.54-333a3.37,3.37,0,1,1,3.1,6C721,745.44,644.8,870.74,644.8,1008.82a364.77,364.77,0,0,0,35.58,158.09,3.37,3.37,0,0,1-1.59,4.5A3.41,3.41,0,0,1,677.34,1171.74Z"/><path class="cls-2" d="M816.9,1327.81a3.3,3.3,0,0,1-1.78-.51,379,379,0,0,1-114.93-111.71,3.38,3.38,0,1,1,5.63-3.73,372.33,372.33,0,0,0,112.86,109.71,3.38,3.38,0,0,1-1.78,6.24Z"/><circle class="cls-5" cx="1012.9" cy="1006.33" r="347.83"/><path class="cls-65" d="M1169.62,936.36s-140.33-35.2-288.61-14a144.12,144.12,0,0,0-101.18,65.87c-40.57,64.19-97.92,178.59-85.79,297.89l63.67,15.74s44-141.58,93.53-199.2c0,0,58.65,133.69,55.68,207.1-.08,2.08-.22,4.1-.4,6.08-6.73,71.82,281.54,13.4,281.54,13.4Z"/><path class="cls-66" d="M1056.38,815.71l-6.4,99.54c-.6,9.26-6.59,17.11-15,19.6-19.36,5.73-55.91,12.64-91.73-1.8-6.56-2.64-9.93-10.41-7.72-17.49l47.39-152.21Z"/><path class="cls-67" d="M1072.4,671.55s30.27,69.54,32.3,106,9.9,60.18-32.3,67.53-77.75-13.68-97-50c0,0-30.18-56-23.41-79S1072.4,671.55,1072.4,671.55Z"/><path class="cls-68" d="M989.81,769h5.33s-22-45.09-2.67-53,95.83-23.52,112.33-50.67c15.92-26.17,1.72-60-19.51-69.44a2.83,2.83,0,0,0-3.61,1.34l-1.76,3.32a2.87,2.87,0,0,1-5.29-.54h0a2.85,2.85,0,0,0-5.14-.78c-5,8.11-18.73,21.32-55.43,28.09-52.07,9.61-86.49,30.68-87.34,66.67a2.87,2.87,0,0,1-4.44,2.35c-3.84-2.34-10-3.44-18.22,3.47-14.29,12-8.44,43.21,22.9,68.86a2.85,2.85,0,0,1-.14,4.6c-5.68,3.69-14.15,12.5,7.8,24.23,22.45,12,35.74,10.69,40.75,9.41a2.87,2.87,0,0,0,2.17-3l-2-31.89a2.87,2.87,0,0,1,2.86-3Z"/><path class="cls-69" d="M991.12,775.62s-11.55-44.42-31.47-32S970,793.43,986,795.09Z"/><path class="cls-70" d="M1168.75,1222.57c6.22-43.9-39.24-108.42-58-132.91a40.76,40.76,0,0,1-8.46-24.4c-.55-62.16,25.56-102.09,67.38-128.9,0,0,151.8,176.85,113.15,312.88a114.73,114.73,0,0,1-18.83,38.13C1257.85,1236.11,1198.6,1224.93,1168.75,1222.57Z"/><path class="cls-71" d="M1165.92,1205.59l5.78-.66c-4.9-43-42.67-96.19-58.69-117l-4.61,3.54C1124.11,1111.9,1161.18,1164,1165.92,1205.59Z"/><path class="cls-72" d="M1167.56,1228.65a50.27,50.27,0,0,0,1.19-6.08c29.85,2.36,89.1,13.54,95.19,64.8-67.75,89.59-254.46,57.27-254.46,57.27v-34.86S1152.88,1283.13,1167.56,1228.65Z"/><path class="cls-73" d="M1027.43,1335s-27.57-65-76.15-42-44.76,38.17-44.76,38.17Z"/><path class="cls-74" d="M1033.62,1348.51h0a9.23,9.23,0,0,1-9.51,8.5l-251.73-8.79a9.19,9.19,0,0,1-8.48-6.46l-7.31-23.38a9.22,9.22,0,0,1,8.31-12l91.8-4.88a9.39,9.39,0,0,1,2.48.21l167.24,37A9.21,9.21,0,0,1,1033.62,1348.51Z"/><polygon class="cls-75" points="864.88 1339.33 857.95 1307.05 763.66 1311.55 769.87 1338.33 864.88 1339.33"/><path class="cls-76" d="M913.22,991.92c5.34,43.61,29.35,220.77,36.22,271.39a11.63,11.63,0,0,1-11.87,13.18l-407.26-11.65a11.64,11.64,0,0,1-11-9.12l-63.36-285.3A11.64,11.64,0,0,1,468,956.28l434.37,25.44A11.63,11.63,0,0,1,913.22,991.92Z"/><path class="cls-77" d="M749.52,1170.84l60.19,170.83-140,3L658.1,1171.86a13.42,13.42,0,0,1,14.29-14.3l65.36,4.34A13.42,13.42,0,0,1,749.52,1170.84Z"/><path class="cls-78" d="M866.45,1344.11h0a7.27,7.27,0,0,1-6.91,9.53H640.37a7.26,7.26,0,0,1-7.27-7.27V1337a7.26,7.26,0,0,1,7.58-7.26l219.18,9.4A7.26,7.26,0,0,1,866.45,1344.11Z"/></g></svg>